<?xml version="1.0" encoding="UTF-8"?>
<svg id="Layer_2" data-name="Layer 2" xmlns="http://www.w3.org/2000/svg" viewBox="0 0 447.54 447.54">
  <defs>
    <style>
      .cls-1 {
        fill: #efe8d4;
      }

      .cls-2 {
        fill: #5e2129;
      }
    </style>
  </defs>
  <g id="Layer_1-2" data-name="Layer 1">
    <circle class="cls-2" cx="223.77" cy="223.77" r="223.77"/>
    <path class="cls-1" d="M321.4,175.72c-25.06-2.86-60.55,18.55-82.17,33.76,14.11-18.59,32.85-49.63,32.85-83.34,0-26.61-21.57-48.18-48.18-48.18s-45.16,21.74-48.18,48.18c-2.86,25.06,18.55,60.55,33.76,82.17-18.59-14.11-49.63-32.85-83.34-32.85-26.61,0-48.18,21.57-48.18,48.18s21.74,45.16,48.18,48.18c25.06,2.86,60.55-18.55,82.17-33.76-14.11,18.59-32.85,49.63-32.85,83.34,0,26.61,21.57,48.18,48.18,48.18s45.16-21.74,48.18-48.18c2.86-25.06-18.55-60.55-33.76-82.17,18.59,14.11,49.63,32.85,83.34,32.85,26.61,0,48.18-21.57,48.18-48.18s-21.74-45.16-48.18-48.18Z"/>
  </g>
</svg>